<svg width="80" height="80" viewBox="0 0 80 80" fill="none" xmlns="http://www.w3.org/2000/svg">
<g clip-path="url(#clip0_249_139)">
<path d="M31.013 10.3595C31.2416 6.48813 31.6653 4.04731 32.0428 1.2998C32.2493 -0.202207 29.926 -0.520303 29.72 0.980767C29.3907 3.37813 29.0569 6.08844 28.8021 8.79421H16.4955C16.3653 6.30556 16.1164 3.69904 15.7452 0.981549C15.5396 -0.521397 13.217 -0.202363 13.4221 1.29902C14.1871 6.8972 14.4264 12.0021 14.1405 16.5153C13.9215 17.8038 13.9059 19.1759 13.7657 20.4808C13.4194 21.5965 10.716 30.5367 9.43032 41.4834C8.62422 48.3469 8.5223 54.6565 9.12739 60.2372C9.89175 67.2875 11.7949 73.2012 14.7839 77.814C15.6709 79.1829 17.1778 79.9999 18.815 79.9999H26.4081C28.2017 79.9999 29.8341 79.0114 30.668 77.4201C33.7671 71.5056 40.4466 48.3633 30.8906 20.4586C30.5975 18.1986 30.752 14.7846 31.013 10.3595ZM25.6546 31.9616L29.9953 37.5503C30.0223 38.9746 30.0165 40.3365 29.9778 41.6344L24.0138 34.0487L25.6546 31.9616ZM27.1482 30.0621L29.3424 27.2713C29.5634 29.4583 29.7297 31.5452 29.8413 33.5294L27.1482 30.0621ZM14.9496 41.784C14.9252 40.9296 15.001 37.6156 15.001 37.6156L28.5047 20.2294C28.6311 21.4713 28.8248 22.707 28.9739 23.9461L14.9496 41.784ZM15.0408 33.7417C15.1473 31.3834 15.3089 29.0941 15.4863 26.996L17.8978 30.0632L15.0408 33.7417ZM28.133 16.8856L22.5235 24.1077L16.9064 16.8756H28.1414C28.1388 16.879 28.1356 16.8821 28.133 16.8856ZM21.039 26.0189L19.3801 28.1549L15.7993 23.6003C15.9254 22.3285 16.0606 21.0576 16.1988 19.787L21.039 26.0189ZM22.5226 35.9455L29.7775 45.1732C29.4235 49.2674 28.7907 54.2104 25.9721 57.4392C24.0052 59.6922 20.8227 59.9302 18.7547 57.6261C16.8161 55.4663 15.6039 51.3452 15.1343 45.3428L22.5226 35.9455ZM28.6028 11.1389C28.5155 12.2964 28.4476 13.4351 28.4056 14.5309H16.5763C16.6066 13.4297 16.609 12.2986 16.5833 11.1389H28.6028ZM33.2145 56.815C32.3731 66.8617 29.9124 73.8102 28.591 76.3317C28.1631 77.1481 27.3265 77.6552 26.4077 77.6552H18.8147C17.9756 77.6552 17.2042 77.2379 16.7514 76.5388C13.9667 72.2412 12.1864 66.6786 11.4605 60.0056C10.8731 54.6057 10.9719 48.4796 11.7541 41.7974C11.9902 39.7915 12.2782 37.7921 12.6177 35.8011C12.4098 42.9323 11.8271 53.4185 17.0096 59.192C19.9971 62.5201 24.8479 62.2914 27.7381 58.9807C29.8307 56.5838 31.2301 52.6924 31.8976 47.4147C32.3289 44.0047 32.455 40.0009 32.2782 35.438C33.7194 44.0243 33.6663 51.4216 33.2145 56.815ZM70.5542 22.5147C67.8523 18.1641 60.2691 16.564 59.7464 16.4585C56.2642 15.6537 53.7165 12.3377 52.7419 9.07244C52.2672 7.48196 51.8973 4.71414 51.6721 1.06815C51.5784 -0.44496 49.2383 -0.300215 49.3318 1.21258C49.4191 2.62705 49.527 3.90584 49.6542 5.04849L38.4799 7.92683L37.2246 0.933092C36.9567 -0.559225 34.649 -0.144371 34.9168 1.34732C34.9168 1.34732 47.6684 72.8059 48.3681 76.1731C48.8289 78.3905 50.8078 79.9997 53.0737 79.9997H57.7289C59.9768 79.9997 61.9528 78.4049 62.4272 76.2075C62.875 74.134 62.8545 71.3663 62.8286 67.8624C62.7933 63.078 62.7493 57.1234 63.7591 49.4872C64.9344 40.601 67.4248 35.1287 69.2432 31.1327C70.9401 27.4045 72.0612 24.9413 70.5542 22.5147ZM58.2832 18.451C57.9563 24.4503 57.1232 31.9833 55.1622 39.2442L47.4441 35.9302L54.7632 16.3937C56.1095 17.5121 57.4259 18.1317 58.2832 18.451ZM44.7824 43.0346L44.8132 42.9524L52.7517 46.4704C52.3388 47.4833 51.8979 48.4779 51.4246 49.4466C49.8066 52.7579 48.2341 54.9174 47.1443 56.1919L44.7824 43.0346ZM40.0209 16.51L47.6963 14.1609L42.331 29.3785L40.0209 16.51ZM43.1698 34.0512L50.4832 13.308L51.8357 12.8941C52.1657 13.4716 52.5388 14.0233 52.952 14.5445L43.9713 38.5166L43.1698 34.0512ZM53.59 44.2773L45.6373 40.7529L46.6207 38.128L54.5084 41.515C54.2239 42.4428 53.9177 43.3638 53.59 44.2773ZM49.9744 7.38708C50.1293 8.31073 50.3029 9.09871 50.4952 9.74287C50.5993 10.0914 50.7123 10.4261 50.8327 10.7489L39.6037 14.1856L38.8956 10.2409L49.9744 7.38708ZM67.1092 30.1618C65.3358 34.0589 62.6559 39.9478 61.4349 49.1801C60.4035 56.9779 60.4501 63.279 60.484 67.8801C60.5089 71.2392 60.5284 73.8925 60.1355 75.7127C59.8924 76.8382 58.8804 77.6552 57.729 77.6552H53.0739C51.9133 77.6552 50.8997 76.8313 50.6639 75.6963C50.0566 72.774 48.9141 67.0139 47.6044 59.1161C48.6093 58.1774 50.9707 55.6481 53.4226 50.6971C58.3554 40.7361 60.0589 28.2664 60.595 19.0841C61.2978 19.2811 62.2169 19.5699 63.1928 19.9612C65.8199 21.0146 67.6768 22.3253 68.5624 23.7516C69.3731 25.0571 68.7028 26.6603 67.1092 30.1618Z" fill="#5BA9E1"/>
</g>
<defs>
<clipPath id="clip0_249_139">
<rect width="80" height="80" fill="white"/>
</clipPath>
</defs>
</svg>
