<svg preserveAspectRatio="none" overflow="visible" style="display: block;" width="80.0001" height="73.5193" viewBox="0 0 80.0001 73.5193" fill="none" xmlns="http://www.w3.org/2000/svg">
<g id="Group">
<path id="Vector" d="M79.9044 44.018C79.8935 43.9905 78.838 41.3013 78.5349 37.1168C78.3487 34.5397 79.9035 30.8227 79.9166 30.783C80.0774 30.2976 79.996 29.5568 79.4184 29.1182L62.093 18.1472C62.4298 17.2408 62.6863 16.7549 62.7626 16.575C62.9223 16.2008 62.9223 15.3216 62.3046 14.8355C62.1204 14.6908 39.1887 0.200048 39.1887 0.200048C38.9226 0.0308295 38.6071 -0.0330767 38.2902 0.016142C38.2902 0.016142 6.6168 5.16755 6.20414 5.27552C4.70836 5.66646 3.08008 7.51661 3.01602 9.71364L3.00586 15.8013C3.00477 17.2205 3.62055 18.4622 4.65586 19.1241L7.72789 21.0693C7.56602 21.5594 7.4532 22.0766 7.43742 22.6196L7.42461 30.0597C7.42461 31.6933 8.12774 33.1154 9.30758 33.8679L15.3912 37.7204C15.3912 37.7204 0.890862 47.9544 0.534143 48.1905C0.177581 48.4268 -0.131794 49.0699 0.0574245 49.7476C0.0707057 49.7949 1.67742 54.4797 1.62508 57.4744C1.58242 59.9013 0.0799245 64.7111 0.067737 64.7602C-0.096013 65.4022 0.196956 66.271 1.07102 66.4172L40.6599 73.5116C41.9634 73.5971 42.823 72.9493 43.4105 72.4591C43.9987 71.9691 70.7546 53.1574 70.7546 53.1574C71.9015 52.346 72.5832 50.8194 72.5802 49.076L72.5782 46.7925L78.9104 45.7732C80.1099 45.5938 80.0938 44.4865 79.9044 44.018ZM61.3968 20.7613L75.1677 29.4821L49.5646 33.6711L39.9745 35.2154L36.4562 32.9877L61.802 28.9011C62.722 28.7426 63.1452 27.6518 62.7098 26.9697C62.6965 26.9491 61.4448 24.7843 61.326 21.8521C61.3115 21.5015 61.3459 21.1333 61.3968 20.7613ZM59.7169 26.6218C59.7169 26.6218 29.0687 31.5786 28.9873 31.5758C28.8195 31.5702 28.7171 31.2347 28.7191 30.9333L28.7284 23.7011C28.7593 22.8652 29.1663 22.5071 29.4015 22.4849L59.5329 17.6288C59.0974 18.8832 58.6863 20.4869 58.7443 21.9566C58.8224 23.8663 59.2885 25.4952 59.7169 26.6218ZM38.2216 2.64302L58.0532 15.2015L37.9265 18.4965L29.937 19.7836L10.1265 7.24052L38.2216 2.64302ZM6.04149 16.946C5.83242 16.8121 5.58649 16.4325 5.5882 15.805L5.59836 9.75396C5.61977 9.01521 6.08164 8.35458 6.50555 8.00302L27.1479 21.0729C26.6916 21.4649 26.1379 22.686 26.1466 23.6997C26.1532 24.5258 26.1257 29.6596 26.1257 29.6596L6.04149 16.946ZM10.6921 31.6882C10.3599 31.478 10.0063 30.9385 10.0063 30.0621C10.0063 30.0621 9.8893 22.7838 10.0413 22.5327C10.0413 22.5327 27.1473 33.6433 27.9501 33.959C28.2702 34.0849 28.6096 34.1693 28.9626 34.1604C29.2312 34.1535 32.6095 33.6079 32.6095 33.6079L37.0248 36.4029C35.8957 37.1926 35.6907 38.726 35.6907 39.7018L35.6659 47.501L10.6921 31.6882ZM17.7526 39.2152C17.7526 39.2152 37.1704 51.6918 37.4777 51.8552C37.8936 52.0766 38.3575 52.1923 38.8287 52.1921C38.9895 52.1921 45.3723 51.1754 45.3723 51.1754L40.0066 54.9555L4.53899 48.5274L17.7526 39.2152ZM41.1818 70.9796L2.94336 64.1293C3.42977 62.3933 4.17367 59.4391 4.2068 57.5202C4.24242 55.424 3.63289 52.7758 3.13071 50.9699C3.13071 50.9699 39.804 57.3858 40.6396 57.6929C41.4751 57.9999 41.7366 59.2647 41.7366 59.8129L41.7466 69.6432C41.7487 70.1258 41.5829 70.9816 41.1818 70.9796ZM69.2648 51.0499L44.3435 68.6086L44.318 59.8116C44.318 58.768 43.8407 56.871 42.8455 56.1149L51.1805 50.2402L69.9965 47.2086L69.9987 49.0794C70.0015 50.1485 69.6026 50.8104 69.2648 51.0499ZM38.8977 49.6033C38.7068 49.599 38.2623 49.4035 38.2598 48.5385L38.2724 39.703C38.2724 39.2608 38.5227 38.2454 39.3363 37.9319L76.7826 31.9015C76.3166 33.424 75.8301 35.5115 75.959 37.3029C76.1544 40.0107 76.6368 42.1393 77.0123 43.4632C77.0126 43.4632 39.0071 49.6065 38.8977 49.6033Z" fill="#5BA9E1"/>
</g>
</svg>
